<?xml version="1.0" standalone="no"?>
<!DOCTYPE svg PUBLIC "-//W3C//DTD SVG 20010904//EN"
 "http://www.w3.org/TR/2001/REC-SVG-20010904/DTD/svg10.dtd">
<svg version="1.0" xmlns="http://www.w3.org/2000/svg"
 width="582.000000pt" height="582.000000pt" viewBox="0 0 582.000000 582.000000"
 preserveAspectRatio="xMidYMid meet">
<metadata>
Created by potrace 1.14, written by Peter Selinger 2001-2017
</metadata>
<g transform="translate(0.000000,582.000000) scale(0.100000,-0.100000)"
fill="#000000" stroke="none">
<path d="M2918 5576 c-1 -2 -50 -6 -108 -9 -58 -4 -116 -9 -130 -12 -14 -3
-43 -8 -65 -11 -47 -7 -171 -39 -235 -61 -65 -22 -193 -77 -220 -94 -8 -5 -22
-12 -30 -16 -8 -3 -34 -19 -57 -35 -23 -15 -45 -28 -50 -28 -4 0 -20 -10 -36
-23 -15 -12 -46 -35 -68 -52 -54 -39 -248 -231 -273 -270 -11 -16 -23 -34 -28
-40 -53 -67 -79 -107 -136 -215 -22 -40 -106 -235 -101 -235 1 0 -8 -31 -19
-70 -39 -135 -54 -253 -56 -449 -3 -212 7 -190 -86 -200 -205 -23 -395 -199
-440 -407 -8 -40 -10 -431 -8 -1489 l3 -1435 30 -65 c38 -84 65 -124 123 -183
98 -102 249 -159 412 -158 8 1 48 1 87 2 40 0 77 -2 82 -5 5 -4 12 -2 16 3 3
7 15 7 29 1 13 -5 27 -6 30 -3 5 5 128 7 151 3 6 -1 12 -2 15 -1 3 1 77 2 165
1 88 0 169 -1 180 0 131 5 235 4 235 -2 0 -4 7 -5 15 -1 24 9 1635 9 1635 0 0
-5 5 -5 12 -1 6 4 59 6 117 5 128 -3 105 -3 229 -1 56 0 107 -2 112 -5 6 -3
10 -3 10 2 0 4 33 9 73 9 39 1 79 4 87 6 88 25 131 41 153 59 15 11 27 18 27
14 0 -9 27 14 94 81 64 63 130 176 143 245 10 47 9 2886 0 2927 -8 35 -8 36
-53 126 -67 135 -235 253 -386 272 -91 11 -83 -3 -84 146 -1 215 -18 362 -58
493 -1 6 -6 27 -11 48 -4 20 -11 40 -16 43 -5 3 -7 9 -4 14 3 5 1 11 -5 15 -5
3 -10 14 -10 23 0 16 -104 233 -132 277 -33 51 -125 173 -152 204 -90 99 -208
208 -243 224 -13 6 -23 13 -23 17 0 9 -108 78 -201 127 -75 40 -254 113 -294
119 -11 2 -45 10 -75 19 -67 19 -170 34 -270 41 -41 3 -80 7 -87 9 -6 2 -13 2
-15 1z m102 -540 c78 -6 174 -27 252 -54 68 -25 233 -105 248 -123 3 -3 23
-18 45 -34 63 -46 187 -175 230 -241 70 -105 134 -248 156 -349 16 -69 17 -79
23 -125 5 -39 9 -247 7 -320 l-1 -25 -1067 1 c-588 1 -1070 2 -1074 3 -13 3 0
325 17 416 54 300 257 580 521 722 126 68 280 116 409 128 38 4 70 8 71 9 2 2
72 -1 163 -8z"/>
</g>
</svg>
