<svg id="Layer_1" data-name="Layer 1" xmlns="http://www.w3.org/2000/svg" viewBox="0 0 102.4 28.99"><title>Instagram logotype logo - Brandlogos.net</title><path d="M220.57,256.1a9.61,9.61,0,0,0-5.13,6.46c-.92,3.93,2.91,5.59,3.23,5s-.69-.85-.91-2.9a8.61,8.61,0,0,1,2.49-6.87c.29-.24.27.09.27.71l-.05,13.1a18.33,18.33,0,0,1-.33,4.57c-.21.89-.54,1.49-.3,1.72s1.52-.36,2.23-1.36a7.37,7.37,0,0,0,1.21-4.15c.06-1.87.05-4.83.06-6.52s0-6.08,0-8.81c0-.67-1.88-1.37-2.75-1ZM295,269.22a8.54,8.54,0,0,1-.8,3.4c-.77,1.56-2.38,2-3.07-.2a12.75,12.75,0,0,1-.12-5c.27-1.72,1-3,2.29-2.92S295.14,266.27,295,269.22Zm-21,9c0,2.42-.4,4.54-1.21,5.17a1.47,1.47,0,0,1-2.4-1.56c.28-1.56,1.63-3.15,3.63-5.11Zm-.32-9.06a9.57,9.57,0,0,1-.8,3.42c-.77,1.56-2.39,2-3.07-.2a11.33,11.33,0,0,1-.12-4.76c.3-1.61,1-3.12,2.29-3.12S273.88,265.91,273.7,269.2Zm-12.15,0a8.65,8.65,0,0,1-.79,3.44c-.8,1.54-2.38,2-3.08-.21a12,12,0,0,1-.12-5c.31-1.77,1.09-3,2.29-2.9S261.71,266.26,261.55,269.19Zm55.69,1.64c-.3,0-.44.32-.55.84-.4,1.83-.82,2.25-1.36,2.25s-1.14-.91-1.29-2.72a59.89,59.89,0,0,1,.05-6.68c0-.53-.13-1.06-1.57-1.59-.62-.23-1.52-.56-2,.53a26.87,26.87,0,0,0-1.89,6.47c0,.05-.07.06-.09-.05-.06-.79-.24-2.23-.25-5.25a1.55,1.55,0,0,0-.78-1.5c-.43-.27-1.7-.73-2.17-.18A12.19,12.19,0,0,0,304,266.1l-.67,2v-4.42A.62.62,0,0,0,303,263a8.65,8.65,0,0,0-1.63-.34c-.44,0-.54.24-.54.61,0,0-.07,4.21-.07,7.13v.42c-.24,1.34-1,3.16-1.89,3.16s-1.27-.76-1.27-4.24c0-2,.06-2.91.09-4.38,0-.85.05-1.5.05-1.64,0-.45-.79-.68-1.15-.77a3.37,3.37,0,0,0-.93-.1.58.58,0,0,0-.61.56v.5a3.36,3.36,0,0,0-1.66-1.35,3.2,3.2,0,0,0-3.69,1.39,8.44,8.44,0,0,0-1.5,4.29,12.83,12.83,0,0,0,.15,3.9c-.3,1.31-.87,1.85-1.49,1.85-.9,0-1.54-1.47-1.47-4a23.3,23.3,0,0,1,.74-4.52,1.45,1.45,0,0,0-.28-1.45,1.8,1.8,0,0,0-1.8-.3c-.63.14-1.54.31-2.36.43,0,0,0-.19.09-.54.21-1.84-1.79-1.69-2.44-1.11a2.31,2.31,0,0,0-.74,1.51,1.77,1.77,0,0,0,.82,1.73,20.14,20.14,0,0,1-3.08,6.55v-.63c0-3,0-5.44,0-6.3s.05-1.48.05-1.63c0-.33-.2-.45-.6-.61a4.25,4.25,0,0,0-1.21-.27c-.54,0-.88.24-.87.59V264a3.35,3.35,0,0,0-1.67-1.35,3.2,3.2,0,0,0-3.69,1.39,9.15,9.15,0,0,0-1.5,4.28,13,13,0,0,0,.08,3.66c-.21,1-.81,2.08-1.48,2.08-.86,0-1.36-.75-1.36-4.23,0-2,.06-2.91.09-4.38,0-.85.05-1.5.05-1.64,0-.45-.79-.68-1.15-.77a3,3,0,0,0-1-.09.61.61,0,0,0-.57.54V264a3.35,3.35,0,0,0-1.67-1.35,3.21,3.21,0,0,0-3.69,1.39,8.08,8.08,0,0,0-1.5,4.26,14.32,14.32,0,0,0-.11,1.85c-.27,1.64-1.46,3.53-2.43,3.53-.57,0-1.11-1.1-1.11-3.44,0-3.13.2-7.58.23-8l1.47,0c.62,0,1.17,0,2,0,.41,0,.8-1.49.38-1.67a14.39,14.39,0,0,0-2.08-.16c-.45,0-1.7-.1-1.7-.1s.12-3,.15-3.26-.32-.4-.52-.48a7,7,0,0,0-1.39-.4c-.69-.14-1,0-1.06.58-.09.88-.14,3.46-.14,3.46-.51,0-2.24-.1-2.74-.1s-1,2-.33,2l2.9.08,0,5.92v.43a6.85,6.85,0,0,1-2.15,3.81c.36-1.63-.38-2.85-1.69-3.9-.49-.38-1.45-1.11-2.53-1.9a6.52,6.52,0,0,0,1.18-1.85c.39-.87.41-1.87-.55-2.08a2.86,2.86,0,0,0-3.29,2,2.37,2.37,0,0,0,.45,2.41l.14.17c-.36.69-.85,1.61-1.27,2.34-1.15,2-2,3.58-2.69,3.58s-.52-1.6-.52-3.11c0-1.3.09-3.24.17-5.26a1.47,1.47,0,0,0-.87-1.4,3.92,3.92,0,0,0-1.49-.63c-.63,0-2.45.09-4.17,5-.21.63-.63,1.76-.63,1.76l0-6a.4.4,0,0,0-.24-.36,4.24,4.24,0,0,0-1.75-.49c-.33,0-.49.15-.49.45l-.06,9.33a13.26,13.26,0,0,0,.09,1.89,1.9,1.9,0,0,0,.33.82.88.88,0,0,0,.56.36c.25.05,1.61.23,1.69-.29a19.59,19.59,0,0,1,.81-3.81c1.11-3.91,2.56-5.82,3.24-6.49.12-.13.25-.13.24.06l-.2,4.82c-.18,4.87.71,5.76,2,5.76,1,0,2.34-1,3.81-3.39l2.45-4.08,1.43,1.32c1.16,1.09,1.54,2.14,1.29,3.13a1.34,1.34,0,0,1-2.21.78c-.38-.23-.54-.4-.92-.64a.65.65,0,0,0-.71,0,2.49,2.49,0,0,0-.92,1.4c-.15.55.41.85,1,1.11a7.67,7.67,0,0,0,2.27.45c2.66.09,4.8-1.29,6.29-4.84.27,3.06,1.4,4.8,3.37,4.8,1.31,0,2.64-1.7,3.22-3.37a5.94,5.94,0,0,0,.73,1.78c1.52,2.4,4.47,1.88,5.94-.16a3.91,3.91,0,0,0,.53-.85,2.78,2.78,0,0,0,2.66,2.6,2.94,2.94,0,0,0,2.75-2.09c.08.18.18.34.27.51,1.52,2.4,4.47,1.88,5.94-.16l.18-.25,0,1.27-1.36,1.24c-2.28,2.08-4,3.67-4.15,5.52-.16,2.36,1.75,3.23,3.2,3.34a4.08,4.08,0,0,0,3.66-1.91,10.91,10.91,0,0,0,1.14-5.51l-.05-3.23a25.87,25.87,0,0,0,4.91-8.55s.84,0,1.74,0c.29,0,.37,0,.32.24s-1.13,4.39-.15,7.14a3.45,3.45,0,0,0,3.08,2.49,3,3,0,0,0,2.58-2l.21.38c1.52,2.4,4.46,1.88,5.94-.16a5.81,5.81,0,0,0,.53-.85,2.9,2.9,0,0,0,2.76,2.61c.92,0,1.81-.38,2.52-2.07a7.68,7.68,0,0,0,.15,1.54,1,1,0,0,0,.51.34,3.9,3.9,0,0,0,2,.1c.22,0,.39-.23.42-.68a27.27,27.27,0,0,1,.39-4.72,13.66,13.66,0,0,1,1.45-4c.15-.27.33-.32.34,0,0,.58,0,2.28.27,4.58a10.76,10.76,0,0,0,.59,3,1.66,1.66,0,0,0,1.66,1c.33,0,1-.09,1-.66a18,18,0,0,1,.63-4.5,22.13,22.13,0,0,1,1.28-3.62c.09-.19.14,0,.14,0a32.33,32.33,0,0,0,.29,6.76c.62,2.7,2.4,3,3,3,1.33,0,2.42-1,2.78-3.67.09-.63,0-1.13-.43-1.13Z" transform="translate(-215.3 -256.01)"/></svg>